# xmcd
#
# Track frame offsets:
#	150
#	17016
#	37760
#	51436
#	69177
#	86909
#	106343
#	121867
#	137487
#	155018
#
# Disc length: 2306 seconds
#
# Revision: 1
# Processed by: cddbd v1.4PL0 Copyright (c) Steve Scherf et al.
# Submitted via: EasyCDDAExtractor 5.0.6
#
DISCID=7a09000a
DTITLE=Maurice Davis - In to Something
DYEAR=1900
DGENRE=blues
TTITLE0=Everybody On The Dance Floor
TTITLE1=I'll Never Lead You On
TTITLE2=Bit Off More Than I Can Chew
TTITLE3=Black Cat In My Bed
TTITLE4=Into Something
TTITLE5=Let's Get It On Tonight
TTITLE6=Who Is It
TTITLE7=Hold On To What You Got
TTITLE8=Rock You Baby
TTITLE9=Can't Stop Loving You
EXTD=
EXTT0=
EXTT1=
EXTT2=
EXTT3=
EXTT4=
EXTT5=
EXTT6=
EXTT7=
EXTT8=
EXTT9=
PLAYORDER=
